<?xml version="1.0" encoding="utf-8"?>
<!-- Generator: Adobe Illustrator 22.0.0, SVG Export Plug-In . SVG Version: 6.00 Build 0)  -->
<svg version="1.1" id="Layer_1" xmlns="http://www.w3.org/2000/svg" xmlns:xlink="http://www.w3.org/1999/xlink" x="0px" y="0px"
	 viewBox="0 0 608.9 468" style="enable-background:new 0 0 608.9 468;" xml:space="preserve">
<style type="text/css">
	.plesk0{fill:#FFFFFF;stroke:#D7D7D7;stroke-linecap:round;stroke-linejoin:round;stroke-miterlimit:10;}
	.plesk1{fill:#FFFFFF;stroke:#808080;stroke-linecap:round;stroke-linejoin:round;stroke-miterlimit:10;}
	.plesk2{fill:none;stroke:#ee5586;stroke-linecap:round;stroke-linejoin:round;stroke-miterlimit:10;}
	.plesk3{fill:#FFFFFF;stroke:#ee5586;stroke-linecap:round;stroke-linejoin:round;stroke-miterlimit:10;}
	.plesk4{fill:none;stroke:#D7D7D7;stroke-linecap:round;stroke-linejoin:round;stroke-miterlimit:10;}
	.plesk5{fill:none;stroke:#808080;stroke-linecap:round;stroke-linejoin:round;stroke-miterlimit:10;}
	.plesk6{fill:#808080;}
</style>
<path class="plesk0" d="M71.2,5.9h511.9c9,0,16.2,7.3,16.2,16.2v374.4c0,9-7.3,16.2-16.2,16.2H71.2c-9,0-16.2-7.3-16.2-16.2V22.1
	C55,13.2,62.3,5.9,71.2,5.9z"/>
<path class="plesk1" d="M25.4,58.2h511.9c9,0,16.2,7.3,16.2,16.2v374.4c0,9-7.3,16.2-16.2,16.2H25.4c-9,0-16.2-7.3-16.2-16.2V74.4
	C9.2,65.5,16.4,58.2,25.4,58.2z"/>
<rect x="53.9" y="129.5" class="plesk2" width="458.9" height="47.2"/>
<path class="plesk3" d="M68.7,83.7c0,2.4-1.9,4.3-4.3,4.3c-2.4,0-4.3-1.9-4.3-4.3c0-2.4,1.9-4.3,4.3-4.3C66.7,79.4,68.7,81.3,68.7,83.7
	z"/>
<path class="plesk4" d="M89.3,83.7c0,2.4-1.9,4.3-4.3,4.3c-2.4,0-4.3-1.9-4.3-4.3c0-2.4,1.9-4.3,4.3-4.3C87.3,79.4,89.3,81.3,89.3,83.7
	z"/>
<path class="plesk4" d="M109.9,83.7c0,2.4-1.9,4.3-4.3,4.3c-2.4,0-4.3-1.9-4.3-4.3c0-2.4,1.9-4.3,4.3-4.3
	C107.9,79.4,109.9,81.3,109.9,83.7z"/>
<path class="plesk4" d="M10.4,103.9h541.7"/>
<rect x="53.9" y="194.4" class="plesk4" width="81.9" height="12.8"/>
<rect x="172.2" y="252.6" class="plesk4" width="133.7" height="12.8"/>
<rect x="154.8" y="194.3" class="plesk4" width="357.1" height="12.8"/>
<line class="plesk4" x1="53.9" y1="227.9" x2="135.7" y2="227.9"/>
<line class="plesk4" x1="172.2" y1="227.9" x2="267.1" y2="227.9"/>
<line class="plesk4" x1="154.8" y1="207.7" x2="154.8" y2="436.8"/>
<line class="plesk4" x1="53.9" y1="251.1" x2="135.7" y2="251.1"/>
<line class="plesk4" x1="342.2" y1="147.8" x2="491.4" y2="147.8"/>
<line class="plesk4" x1="374.1" y1="158.1" x2="491.4" y2="158.1"/>
<rect x="173.3" y="320.1" class="plesk2" width="32.9" height="28.7"/>
<rect x="292.2" y="320.1" class="plesk4" width="32.9" height="28.7"/>
<rect x="410.9" y="320.1" class="plesk4" width="32.9" height="28.7"/>
<rect x="173.3" y="361.3" class="plesk4" width="32.9" height="28.6"/>
<rect x="232.1" y="320.1" class="plesk4" width="32.9" height="28.7"/>

<g>
<rect id="svg-ico" x="232.1" y="361.3" class="plesk2" width="32.9" height="28.6"/>
	<animate 
	attributeName="opacity"
    values="0;1;0" 
    dur="1s"
    repeatCount="indefinite"/>

    <animate 
	attributeName="fill"
	xlink:href="#svg-ico"
	calMode="linear"
	dur="1s"
	begin="0s"
	from="#ffffff" 
	to="#ee5486"  
	fill="freeze" />
</g>

<g>
<rect id="svg-ico" x="352.6" y="320.1" class="plesk2" width="32.9" height="28.7"/>
	<animate 
	attributeName="opacity"
    values="0;1;0" 
    dur="1s"
    repeatCount="indefinite"/>

	<animate 
	attributeName="fill"
	xlink:href="#svg-ico"
	calMode="linear"
	dur="1s"
	begin="0.5s"
	from="#ffffff" 
	to="#ee5486"  
	fill="freeze" />
</g>

<rect x="292.2" y="361.3" class="plesk4" width="32.9" height="28.6"/>
<rect x="352.6" y="361.3" class="plesk4" width="32.9" height="28.6"/>
<rect x="410.8" y="361.3" class="plesk2" width="32.9" height="28.6"/>
<rect x="475.1" y="320.1" class="plesk4" width="32.9" height="28.7"/>
<rect x="173.3" y="403.5" class="plesk4" width="32.9" height="28.7"/>
<rect x="292.2" y="403.5" class="plesk4" width="32.9" height="28.7"/>
<rect x="410.9" y="403.5" class="plesk4" width="32.9" height="28.7"/>
<rect x="232.1" y="403.5" class="plesk4" width="32.9" height="28.7"/>
<rect x="352.6" y="403.5" class="plesk2" width="32.9" height="28.7"/>
<rect x="475.1" y="403.5" class="plesk4" width="32.9" height="28.7"/>
<rect x="474.9" y="361.3" class="plesk4" width="32.9" height="28.6"/>
<line class="plesk4" x1="53.9" y1="274.3" x2="135.7" y2="274.3"/>
<line class="plesk4" x1="53.9" y1="297.4" x2="135.7" y2="297.4"/>
<line class="plesk4" x1="53.9" y1="320.6" x2="135.7" y2="320.6"/>
<line class="plesk5" x1="53.9" y1="343.8" x2="135.7" y2="343.8"/>
<line class="plesk5" x1="53.9" y1="367" x2="135.7" y2="367"/>
<line class="plesk5" x1="172.2" y1="279.7" x2="328.5" y2="279.7"/>
<line class="plesk5" x1="172.2" y1="290.1" x2="410.8" y2="290.1"/>
<line class="plesk4" x1="53.9" y1="398.2" x2="89.8" y2="398.2"/>
<line class="plesk4" x1="53.9" y1="408.5" x2="89.8" y2="408.5"/>
<line class="plesk4" x1="53.9" y1="418.9" x2="89.8" y2="418.9"/>
<line class="plesk4" x1="53.9" y1="429.3" x2="89.8" y2="429.3"/>
<line class="plesk4" x1="100" y1="398.2" x2="136" y2="398.2"/>
<line class="plesk4" x1="100" y1="408.5" x2="136" y2="408.5"/>
<line class="plesk5" x1="100" y1="418.9" x2="136" y2="418.9"/>
<line class="plesk5" x1="100" y1="429.3" x2="136" y2="429.3"/>

<g>
	<path class="plesk6" d="M74.2,169.3h-2.3v-24.1c1.9-0.6,3.8-0.9,5.7-0.9c1.3,0,2.6,0.2,3.7,0.6c1.1,0.4,2.1,1,2.8,1.8
		c0.8,0.8,1.4,1.6,1.8,2.7c0.4,1,0.6,2.2,0.6,3.4c0,1.5-0.3,2.8-0.8,3.8c-0.5,1.1-1.2,1.9-2,2.6c-0.8,0.7-1.8,1.2-2.8,1.5
		c-1.1,0.3-2.1,0.5-3.3,0.5c-0.6,0-1.2,0-1.8-0.1c-0.6-0.1-1.1-0.2-1.7-0.4V169.3z M83.9,152.8c0-1.9-0.5-3.5-1.6-4.7
		c-1.1-1.2-2.6-1.8-4.5-1.8c-0.6,0-1.2,0-1.8,0.1c-0.6,0.1-1.2,0.2-1.8,0.4v11.7c0.5,0.2,1.1,0.3,1.6,0.4c0.6,0.1,1.1,0.2,1.6,0.2
		c2,0,3.5-0.6,4.7-1.7C83.4,156.5,83.9,154.9,83.9,152.8"/>
	<rect x="91.2" y="137.9" class="plesk6" width="2.3" height="23.2"/>
	<path class="plesk6" d="M112.5,158.7c-0.8,0.8-1.7,1.5-2.7,1.9c-1,0.4-2.2,0.6-3.7,0.6c-1.3,0-2.5-0.2-3.5-0.7c-1-0.5-1.8-1.1-2.5-1.8
		c-0.7-0.8-1.2-1.7-1.5-2.7c-0.3-1-0.5-2-0.5-3.2c0-1.5,0.2-2.7,0.6-3.8c0.4-1.1,0.9-2,1.6-2.7c0.7-0.7,1.5-1.2,2.4-1.6
		c0.9-0.3,1.9-0.5,2.9-0.5c2.4,0,4.3,0.7,5.5,2.2c1.2,1.5,1.8,3.7,1.8,6.5h-12.4c0.1,1.9,0.6,3.4,1.6,4.5c1,1.1,2.4,1.7,4.2,1.7
		c1,0,1.9-0.2,2.7-0.5c0.8-0.3,1.5-0.8,2.2-1.5L112.5,158.7z M110.7,151.1c0-0.7-0.1-1.3-0.3-1.9c-0.2-0.6-0.5-1.1-0.9-1.5
		c-0.4-0.4-0.9-0.8-1.5-1c-0.6-0.3-1.3-0.4-2.2-0.4c-0.8,0-1.6,0.1-2.2,0.4c-0.6,0.3-1.1,0.6-1.4,1c-0.4,0.4-0.7,0.9-1,1.5
		c-0.3,0.6-0.5,1.3-0.6,2H110.7z"/>
	<path class="plesk6" d="M128.2,148.4c-0.6-0.7-1.2-1.3-1.9-1.6c-0.7-0.3-1.5-0.5-2.4-0.5c-1.2,0-2,0.2-2.5,0.6c-0.5,0.4-0.7,1-0.7,1.6
		c0,0.4,0.1,0.8,0.3,1.1c0.2,0.3,0.5,0.6,0.9,0.8c0.4,0.2,0.8,0.4,1.3,0.6c0.5,0.2,1,0.3,1.5,0.5c0.6,0.2,1.3,0.4,1.9,0.6
		c0.6,0.2,1.2,0.5,1.7,0.9c0.5,0.4,0.9,0.8,1.3,1.4c0.3,0.5,0.5,1.2,0.5,2c0,0.8-0.2,1.4-0.5,2c-0.3,0.6-0.8,1.1-1.3,1.5
		c-0.6,0.4-1.2,0.7-2,0.9c-0.8,0.2-1.6,0.3-2.4,0.3c-1.3,0-2.5-0.2-3.5-0.6c-1-0.4-2-1.1-2.9-2.1l1.8-1.6c1.2,1.5,2.8,2.3,4.7,2.3
		c1.3,0,2.2-0.2,2.8-0.7c0.6-0.5,0.9-1,0.9-1.7c0-0.5-0.1-0.9-0.3-1.3c-0.2-0.3-0.5-0.6-0.9-0.9c-0.4-0.2-0.8-0.4-1.3-0.6
		c-0.5-0.2-1-0.3-1.6-0.5c-0.6-0.2-1.2-0.4-1.9-0.6c-0.6-0.2-1.2-0.5-1.7-0.8c-0.5-0.3-0.9-0.8-1.2-1.3c-0.3-0.5-0.5-1.2-0.5-2
		c0-1.5,0.5-2.6,1.6-3.4c1.1-0.8,2.4-1.2,4.1-1.2c1.2,0,2.3,0.2,3.2,0.6c0.9,0.4,1.8,1.1,2.7,2.1L128.2,148.4L128.2,148.4z"/>
	<path class="plesk6" d="M134.4,137.9h2.3v23.2h-2.3V137.9z M136.7,152.5l8-8h3.1l-8.2,8l8.1,8.6h-3.2L136.7,152.5z"/>
	<rect x="85.3" y="167.2" class="plesk6" width="14" height="2.2"/>
</g>
<g>
<path class="plesk3" d="M506.4,103.9c0,2.4-1.9,4.3-4.3,4.3c-2.4,0-4.3-1.9-4.3-4.3c0-2.4,1.9-4.3,4.3-4.3
	C504.5,99.6,506.4,101.5,506.4,103.9z"/>
	<animateMotion
	path="M40, 0 -490 0 45 0"
	begin="0s" 
	dur="12s" 
	repeatCount="indefinite"
	/>
</g>
</svg>
