<?xml version="1.0" encoding="utf-8"?>
<!-- Generator: Adobe Illustrator 22.0.0, SVG Export Plug-In . SVG Version: 6.00 Build 0)  -->
<svg version="1.1" id="Layer_1" xmlns="http://www.w3.org/2000/svg" xmlns:xlink="http://www.w3.org/1999/xlink" x="0px" y="0px"
	 viewBox="0 0 1100.6 690.4" style="enable-background:new 0 0 1100.6 690.4;" xml:space="preserve">
<style type="text/css">
	.games0{fill:none;stroke:#414142;stroke-width:2;stroke-linecap:round;stroke-linejoin:round;stroke-miterlimit:10;}
	.games1{fill:none;stroke:#EE5586;stroke-width:2;stroke-linecap:round;stroke-linejoin:round;stroke-miterlimit:10;}
</style>
<path class="games0" d="M420.5,265.1"/>
<path id="svg-concept" class="games1" d="M397,306.6c-0.6-0.5-11.3-6.2-11.3-6.2l-12.6,1.8"/>
<polygon class="games0" points="740.7,496.8 750.4,496.8 750.4,492.2 740.5,492.2 "/>
<polygon class="games0" points="759.8,492 759.8,497.2 769.9,497.2 769.9,492 "/>
<polygon class="games0" points="750.4,496.8 750.4,501.5 759.7,501.5 759.7,496.8 "/>
<polyline class="games0" points="750.4,501.5 741,501.5 741,507 769.9,507.4 769.9,501.7 759.7,501.5 "/>
<polyline class="games0" points="744.2,532.9 744.2,528.9 739,528.9 739,518.7 735.6,520.8 "/>
<polyline class="games0" points="735.3,554.4 735.3,548.2 738.9,548.2 738.9,539.4 741.8,539.4 741.8,533.3 749.5,533.3 749.5,527.4 
	753.7,527.4 753.7,533.3 755.4,533.3 755.4,540.4 757.7,540.4 757.7,527.8 760.5,527.8 760.5,525.2 763.8,525.2 763.8,522.6 
	768,522.6 768,529 771.7,529 "/>
<rect x="763.8" y="515.1" class="games0" width="4.3" height="4.3"/>
<rect x="742.3" y="522" class="games0" width="3.8" height="3.8"/>
<rect x="770.5" y="480.5" class="games0" width="3.7" height="3.7"/>
<rect x="760.9" y="544.1" class="games0" width="3.7" height="3.7"/>
<polyline class="games0" points="773.6,484.6 773.6,510.9 778,504 "/>
<line class="games0" x1="773.6" y1="475.6" x2="773.6" y2="480.4"/>
<line class="games0" x1="773.6" y1="510.9" x2="737.5" y2="510.9"/>
<path class="games0" d="M738.9,468.1l-4,4.3l-0.3,3.2h5.2h33.8l3.4-6.5c-0.2,0.2-15.1,0.2-15.1,0.2v1.8h-5.2v-3L738.9,468.1l0-12.9
	c0,0,2.1,0.5,2.1,0s0-9.4,0-9.4h2.2v-6.1h10.1v6.1h2v-11.8h2.6v-3.1h1.5v-3.6h4v6.9h1.4v2.9h1.8v-3h6.2v5h2.2v11.2h2.9v9.4h-3.2v3.1
	l5.5,0l0.7,36L778,504l1.6,24h-3v-13.7H739v4.4"/>
<rect x="767.5" y="427.2" class="games0" width="4.1" height="4.1"/>
<rect x="759.2" y="420.2" class="games0" width="4.6" height="4.6"/>
<rect x="763.5" y="411.9" class="games0" width="4.6" height="4.6"/>
<polyline class="games0" points="727.5,496.2 724,508.6 728.8,508.6 733,496.2 "/>
<polyline class="games0" points="724,508.6 722,517.7 727.2,518.6 728.8,508.6 "/>
<polyline class="games0" points="722,517.7 721.5,523.3 727,523.8 727.2,518.6 "/>
<polyline class="games0" points="721.5,523.3 721.2,528.9 727,528.9 727,523.8 "/>
<polyline class="games0" points="721.2,528.9 720.6,533.1 722.1,535.6 726.6,535.6 727.6,533.2 727,528.9 "/>
<polyline class="games0" points="722.5,541.6 721.2,546.1 725.2,551.4 729,551.7 729,548.8 732.1,548.8 732.1,542.4 730.1,539.8 "/>
<polyline class="games0" points="732.1,542.4 732.1,536.2 727.6,533.2 730.1,539.8 726.4,541.9 722.5,541.6 720,537.9 722.1,535.6 "/>
<polyline class="games0" points="732.1,536.2 733.5,527.6 727.6,526.4 "/>
<polyline class="games0" points="733.5,527.6 734.6,521.8 727.5,520.9 "/>
<polyline class="games0" points="734.6,521.8 735,516.8 727.9,515.8 "/>
<polyline class="games0" points="735,516.8 736,511.9 728.8,510.4 "/>
<polyline class="games0" points="736,511.9 736.5,506.8 730.1,505.4 "/>
<polyline class="games0" points="736.5,506.8 737.4,501.6 732,500.6 "/>
<polyline class="games0" points="737.4,501.6 740.4,475.6 733,494.1 733,496.2 727.5,496.2 727.1,493.3 734.6,475.6 "/>
<line class="games0" x1="733" y1="496.2" x2="737.9" y2="496.6"/>
<path class="games0" d="M110.4,669.1h22.9c0,0,61.8-23.3,61-23.3c-0.8,0-14.4-2.3-15.5-1.9C177.7,644.3,110.4,669.1,110.4,669.1z"/>
<path class="games0" d="M232.5,632.4c0,0,13.8,2.3,14.4,2.1c0.6-0.2,37.9-14.6,37.9-14.6l-14.6-1.7L232.5,632.4z"/>
<polygon class="games0" points="230.4,668.6 253.2,668.6 307.7,642.8 289.9,640.5 "/>
<polygon class="games0" points="221.9,582.8 230.4,584.2 264.5,576.3 258.8,574.4 "/>
<path class="games0" d="M152.3,573.8c0,0,13.8,1.8,15.2,1.8s95.3-15.7,95.3-15.7l-5.3-2L152.3,573.8z"/>
<path class="games0" d="M74.9,623.8c1,0,15.6,1.2,15.6,1.2l36.3-10.9l-13.2-1.2L74.9,623.8z"/>
<polygon class="games0" points="287.7,689.1 315.2,689.1 346.1,669.8 319.9,669.2 "/>
<path class="games0" d="M409.2,659.1c0.6,0.2,20.2,1.9,20.2,1.9s31.6-25.2,31-25.6c-0.6-0.4-17.4-1-17.4-1L409.2,659.1z"/>
<polygon class="games0" points="446.1,688.9 472.8,688.9 506.5,651.7 484.4,650.2 "/>
<polygon class="games0" points="607.1,689.1 615.8,652.9 635.6,653.9 633.5,689.5 "/>
<path class="games0" d="M685.4,688.9c0,0-5.8-41.9-4.3-42.1c1.4-0.2,20.9,0.2,20.9,0.2l9.7,42.6L685.4,688.9z"/>
<polygon class="games0" points="658.5,624.6 677.1,624.6 674,605.4 657.7,605.4 "/>
<polygon class="games0" points="697.6,572.9 707.9,572.5 702.1,562 694.1,562.2 "/>
<path class="games0" d="M727.8,657.9l22.1-0.4c0,0-11.8-22.3-12.8-22.5c-1-0.2-18.8-0.2-18.8-0.2L727.8,657.9z"/>
<polygon class="games0" points="778.8,638.2 799,638.2 774.3,609.3 758.1,609.3 "/>
<path class="games0" d="M778.2,667.6l12.6,21.7c0,0,26.6,0.3,26.2,0c-0.3-0.3-15.9-22.1-15.9-22.1L778.2,667.6z"/>
<polygon class="games0" points="868.5,686.8 835.2,653.1 856.1,653.1 894.7,686.6 "/>
<path class="games0" d="M955.7,689.7c0,0-3.5-11.8-2.1-11.6c1.4,0.2,9.1,0,9.1,0l2.9,11.4"/>
<polyline class="games0" points="984.6,689.5 974.9,630.4 986,629.6 995.3,689.7 "/>
<polyline class="games0" points="1017.9,689.5 1016.6,678.1 1029,678.1 1031.1,689.9 "/>
<path class="games0" d="M1043.3,689.1c0-0.8-0.6-11.4-0.6-11.4h7.2v-49.2l8.1,3.7v16.9h7.4l1-34.1l-19-8.3l19.6-0.8v-9.5l8.7,1.7v7.6
	h17.8l2.5-47.9h3.9"/>
<path class="games0" d="M1057.9,649.2l-4.1,0.8c0,0,1.7,28.1,2.7,28.1s14.9-0.4,14.9-0.4l-1.9-28.9l-4.1,0.4"/>
<line class="games0" x1="1056.5" y1="678.1" x2="1056.9" y2="689.1"/>
<line class="games0" x1="1064.3" y1="678.5" x2="1064.8" y2="689.9"/>
<polyline class="games0" points="1073,689.5 1074.1,657 1070.1,655 "/>
<polyline class="games0" points="1080.9,689.3 1083.4,622.1 1074.5,618.6 1075.7,605.8 "/>
<path class="games0" d="M1089.1,688.9c0.6-0.6,3.7-62.6,3.7-62.6l-9.5-4.1"/>
<line class="games0" x1="1093.5" y1="605.8" x2="1092.9" y2="626.2"/>
<polyline class="games0" points="1094.1,590.1 1051.5,575.8 1094.5,575.6 "/>
<polygon class="games0" points="889.1,582 904.8,581.2 883.8,571.5 875.5,572.3 "/>
<polygon class="games0" points="980.3,584.1 999.5,582.9 957.1,570.3 946.6,571.3 "/>
<polyline class="games0" points="952.2,688.6 933.5,675.9 953.5,675.9 956.8,678.1 "/>
<line class="games0" x1="964" y1="681.3" x2="975.3" y2="689.6"/>
<polygon class="games0" points="885.3,630.9 905.7,630.8 875.3,611.6 861.2,612.1 "/>
<polyline class="games0" points="990.5,655.9 1014.2,655.3 988.3,641.6 "/>
<path class="games0" d="M975.5,635.9c-0.7-0.5-15.8-8.3-15.8-8.3l-15.7,0.8l33.2,19.3"/>
<polyline class="games0" points="1095,561.1 1060.7,560.8 1042,483.4 "/>
<path class="games0" d="M1060.7,560.8l-30.7-1c0,0-17.7-72.7-17.7-74s29.7-2.3,29.7-2.3s54.7-0.7,58.3-0.3"/>
<polyline class="games0" points="1030,559.8 948.3,557.4 911.7,557.1 898.3,491.8 884,493.1 864.3,397.8 "/>
<polyline class="games0" points="1043,418.1 1077.7,417.1 1099.7,410.1 "/>
<polyline class="games0" points="948.3,557.4 919.3,421.4 999.4,419.3 "/>
<line class="games0" x1="1077.7" y1="417.1" x2="1097" y2="482.1"/>
<polyline class="games0" points="929.7,556.8 890.3,367.4 1003.1,362.5 "/>
<line class="games0" x1="919.3" y1="421.4" x2="902.5" y2="427.2"/>
<polyline class="games0" points="1064.2,363.3 1060.2,349.2 1099.8,347.4 "/>
<line class="games0" x1="1079" y1="416.2" x2="1066.5" y2="371.5"/>
<line class="games0" x1="1060.2" y1="349.2" x2="1046.5" y2="354.4"/>
<line class="games0" x1="860.3" y1="445.8" x2="873" y2="444.8"/>
<polyline class="games0" points="898.3,491.8 865,322.8 1099.7,308.1 "/>
<line class="games0" x1="875.7" y1="377.4" x2="890.3" y2="367.4"/>
<line class="games0" x1="929.5" y1="319.4" x2="939.2" y2="364.9"/>
<line class="games0" x1="1041.2" y1="312.4" x2="1050" y2="352.2"/>
<path class="games0" d="M962,514.2c0.2,0.8,1.2,6,1.2,6l7-0.5l-1.2-6.2L962,514.2z"/>
<polygon class="games0" points="986.8,493.7 994.2,493.7 993.8,486.2 985.8,485.4 "/>
<polygon class="games0" points="1071.2,517.7 1078.2,517.4 1076.8,511.4 1069.8,511.2 "/>
<polygon class="games0" points="946,456.7 953,456.4 952.8,450.9 945.5,450.9 "/>
<polygon class="games0" points="971.2,409.2 978.2,408.7 976.5,402.4 969.8,402.9 "/>
<polygon class="games0" points="929.8,395.9 936.2,395.4 935.5,390.2 927.8,390.7 "/>
<polygon class="games0" points="903.5,357.7 911.2,357.4 910,352.2 902.8,352.4 "/>
<polygon class="games0" points="878.2,349.4 886,348.9 885.2,343.4 877.2,343.7 "/>
<path class="games0" d="M938.8,360.7c0.8,0.2,14.2-0.5,14.2-0.5l-0.5-4.8l-14.8,1.2"/>
<polygon class="games0" points="965.2,341.2 965.5,345.7 971.5,345.2 970.5,340.2 "/>
<polygon class="games0" points="974,339.4 974.8,344.7 990.8,343.7 989.2,338.7 "/>
<polyline class="games0" points="861.2,374.2 852.1,334.2 865,322.8 "/>
<path class="games0" d="M901.8,509.8c0,0-5.1,1.9-5.7,2.1s-32.8,0.6-32.8,0.6l-1.6-33.6l18.9-1.3"/>
<polygon class="games0" points="866.4,500.1 875.2,500.1 875.2,495.5 866.3,495.5 "/>
<polygon class="games0" points="882.9,500.3 891.8,500.1 891.5,495 882.6,495.4 "/>
<path class="games0" d="M875.2,500.1v3.7h8.4v-3.5C883.7,500.3,875.2,500,875.2,500.1z"/>
<polyline class="games0" points="862.2,491.6 866.8,491.6 866.8,486.8 878.6,486.8 878.6,482.7 881.7,482.7 "/>
<polyline class="games0" points="896.1,511.9 880.3,518 882.1,536.7 898.9,535.4 906.2,530.8 "/>
<polyline class="games0" points="880.3,518 896.4,516.9 898.9,535.4 "/>
<line class="games0" x1="896.4" y1="516.9" x2="902.8" y2="513.8"/>
<line class="games0" x1="862.8" y1="507.3" x2="856.8" y2="509.3"/>
<path class="games0" d="M865.4,512.9L866,528c0,0-7.6,1.7-8.1,1.7L865.4,512.9z"/>
<polyline class="games0" points="866,528 868.9,558 911.7,557.1 "/>
<line class="games0" x1="895.6" y1="536.1" x2="896.5" y2="557.3"/>
<polyline class="games0" points="890.2,557.5 890,552.2 868.3,551.3 "/>
<polyline class="games0" points="898.9,557.4 898.9,552 904.4,549.3 903.2,533 "/>
<line class="games0" x1="904.4" y1="549.3" x2="904.7" y2="557.1"/>
<polygon class="games0" points="691.8,519.8 698.6,519.8 698.4,513.2 691.6,513 "/>
<polygon class="games0" points="670.1,530.8 676.2,530.8 676.2,524.7 669.8,524.5 "/>
<polyline class="games0" points="675.9,549.8 718.4,550.7 727.8,554.8 735.3,554.8 765.6,554.8 "/>
<polyline class="games0" points="718.4,550.7 709.9,493.2 656.4,493.2 "/>
<polyline class="games0" points="702.8,493.2 697.7,451.3 740.4,450.3 "/>
<path class="games0" d="M741,445.8l-43.8,0.8l3.2-4.5c-0.9-0.3-40.4,1-40.4,1"/>
<path class="games0" d="M660,452.3l37.6-1.1l-0.5-4.6c-1,0-32.7,0.9-37.2,1.1"/>
<polygon class="games0" points="674.3,425.8 674.3,431.6 682,431.6 682,425.6 "/>
<line class="games0" x1="760.6" y1="394.2" x2="783.9" y2="394.2"/>
<line class="games0" x1="759.1" y1="403.6" x2="783.9" y2="403.6"/>
<polyline class="games0" points="773.8,320.5 779.9,348.8 853.7,344.6 "/>
<line class="games0" x1="817.9" y1="317.5" x2="813.2" y2="295.6"/>
<polyline class="games0" points="814.4,291.7 833.5,267.6 843.7,267.3 843.2,260.6 846.5,256.7 808.2,259.4 "/>
<line class="games0" x1="833.5" y1="267.6" x2="842.7" y2="315.3"/>
<polyline class="games0" points="864.8,314.8 849.9,240.8 859.6,226.1 903.3,222.2 925.4,318.2 "/>
<line class="games0" x1="859.6" y1="226.1" x2="879" y2="321.7"/>
<polyline class="games0" points="885.7,321 880.3,296.6 885,296.6 890.5,320.9 "/>
<polyline class="games0" points="896.1,320.4 892.9,307.3 898.3,307.3 901.5,320 "/>
<polygon class="games0" points="905.9,315.5 904.4,307.2 908.2,306.6 910.1,315.1 "/>
<path class="games0" d="M916.5,319c0-0.4-5.5-26.6-5.5-26.6l4.3,0.1l6.1,26.1"/>
<polygon class="games0" points="902.3,302.2 907.2,302 903.4,281.5 898.8,281.8 "/>
<polygon class="games0" points="889.6,288.1 894.7,287.7 891.9,271.8 886.8,272.2 "/>
<polygon class="games0" points="884.8,268.3 890.9,267.6 889.8,263 884.1,263.5 "/>
<polyline class="games0" points="885.1,224 892.2,251.9 886.6,252.9 879.6,224.5 "/>
<path class="games0" d="M896.4,242.7c0.2,0.4,4.5,20.5,4.5,20.5c0.4,0,4.8-0.3,4.8-0.3l-4.7-20.7L896.4,242.7z"/>
<line class="games0" x1="863.9" y1="247.5" x2="905.7" y2="233.8"/>
<polyline class="games0" points="919.5,294.2 923.2,294 926,304.5 929,304.3 923,285.4 925.9,284.8 928.4,292.9 930.7,292.7 
	933.5,303.1 936.4,302.7 932.4,289.7 935.4,289.4 938.2,298.6 940.7,298.3 938.5,289.7 940.3,289.4 939.8,286.6 943.6,286.2 
	944.3,288.2 942.3,290 942.4,294.7 944.2,294.5 945,292 947.4,291.7 950,305.2 953.9,304.5 950.1,290.8 952,290.5 951.7,287.7 
	955.3,287.2 957.4,295.8 954.8,297.1 959.4,312.8 955.1,313.3 955.7,316.6 "/>
<polyline class="games0" points="1001.1,276.7 917,281.3 955.4,246.6 1044.8,238.5 "/>
<path class="games0" d="M1011.8,312.8c-0.3-0.7-12.5-43.2-12.5-43.2l13.8-10.7l40.2-2.3l15.3,53.5"/>
<line class="games0" x1="1013.2" y1="258.9" x2="1027" y2="312.3"/>
<polyline class="games0" points="1045.8,311.1 1038.5,285.1 1043.5,284.4 1050.7,310.9 "/>
<polygon class="games0" points="1054.5,301.6 1046.8,270.8 1051.5,270.4 1059.3,301.6 "/>
<path class="games0" d="M1029,295.9l5-0.3l-1-5.2c0,0-5.3-0.2-5.2,0.3C1028,291.3,1029,295.9,1029,295.9z"/>
<line class="games0" x1="1019.5" y1="283.3" x2="1054.5" y2="262.4"/>
<polyline class="games0" points="1084.8,308.9 1064.8,255.6 1053.3,256.6 "/>
<polyline class="games0" points="1100,298.9 1084.2,253.3 1064.8,255.6 "/>
<path class="games0" d="M1100.2,263.8c0,0-7.2,1.3-7.2,0.8s-3.7-11.8-3.7-11.8l-5.2,0.5"/>
<line class="games0" x1="1089.3" y1="252.8" x2="1099.5" y2="251.6"/>
<polyline class="games0" points="1099.7,220.6 1050.5,256.3 1035,202.6 1014.3,220.8 1001,170.6 1027.2,145.6 1014.2,99.6 1030.8,81.9 
	1056.8,77.6 1040.5,24.9 1085.8,20.9 1084.2,17.3 1099.5,1.4 "/>
<line class="games0" x1="1085.8" y1="20.9" x2="1099.8" y2="63.6"/>
<path class="games0" d="M1040.5,24.9l-14.2,19.7l-44,6.5l-12.7,17.5l9.3,35.3c0,0-11,1.2-11.2,1.7c-0.2,0.5-5.2,6.2-5.2,6.2l-38.7,5.7
	c0,0-7.8-39.8-8.3-39.5c-0.5,0.3-29.3,5.2-29.3,5.2l-3.8-15.5l-42.3,6.3l-8.3,17.2l-39.3,6.2l-6.7,16.2l5.7,22.5l-17.5,1.8
	l-18.5,52.7l10.3,62.8l8.2-0.3"/>
<path class="games0" d="M765.8,253.3l15.8-30.8c0,0,41.7-3.2,42-3.7c0.3-0.5,7.2-13.5,7.2-13.5l173.8-18.5"/>
<polyline class="games0" points="781.7,222.4 775,186.3 779.8,173.6 824.8,168.6 830.8,205.3 "/>
<path class="games0" d="M775,186.3c0.5,0,42.2-3.7,42.2-3.7l6.5,36.2"/>
<line class="games0" x1="824.8" y1="168.6" x2="817.2" y2="182.6"/>
<polyline class="games0" points="777.2,197.4 808.3,194.6 813.2,219.8 "/>
<polyline class="games0" points="791.5,221.4 791,215.6 798.2,214.9 798.7,220.8 "/>
<line class="games0" x1="774" y1="137.8" x2="779.8" y2="173.6"/>
<line class="games0" x1="792.5" y1="97.3" x2="801.7" y2="134.6"/>
<line class="games0" x1="791.5" y1="135.9" x2="924" y2="117.4"/>
<polyline class="games0" points="807.7,133.4 804.8,119.3 846.8,111.9 840.2,73.9 "/>
<line class="games0" x1="886.3" y1="83.1" x2="894.3" y2="121.3"/>
<line class="games0" x1="831.8" y1="91.1" x2="837.3" y2="112.8"/>
<line class="games0" x1="798.5" y1="120.8" x2="822.3" y2="93.1"/>
<polyline class="games0" points="843.7,203.9 842.7,197.4 849.2,196.3 850,202.8 "/>
<polyline class="games0" points="898.8,197.8 898.2,191.9 906.2,190.8 907,196.9 "/>
<polyline class="games0" points="974.5,189.4 973.7,183.8 986.5,182.3 987.3,188.1 "/>
<polyline class="games0" points="911.2,255.2 925.6,240.1 969.3,236.6 1006.3,194.7 "/>
<line class="games0" x1="955.4" y1="246.6" x2="953" y2="238.7"/>
<polyline class="games0" points="117.9,555.7 144.5,553.5 198.6,554.4 272.2,548.9 272.6,496.1 199.9,490.2 150,490.2 "/>
<line class="games0" x1="199.9" y1="490.2" x2="198.6" y2="554.4"/>
<line class="games0" x1="144.5" y1="553.5" x2="145.5" y2="514.6"/>
<path class="games0" d="M294.6,457.8c-1-0.3-27.9-5.2-27.9-5.2l-41.2,1l-125.1-21.4l-46,2.3l-54.1-8.1"/>
<line class="games0" x1="54.4" y1="434.5" x2="51.1" y2="475.7"/>
<line class="games0" x1="100.4" y1="432.2" x2="100.4" y2="448.1"/>
<line class="games0" x1="225.5" y1="453.6" x2="225.5" y2="491.9"/>
<line class="games0" x1="266.7" y1="452.6" x2="266.7" y2="495.1"/>
<polyline class="games0" points="0.2,383.6 13.9,382 151.3,411.8 189.6,410.2 210,415.4 245,415 277.4,422.2 313.4,421.2 326.7,425.4 
	376.9,423.9 376.9,414.2 406.6,413 406.6,406.8 428.4,405.8 "/>
<line class="games0" x1="13.9" y1="382" x2="9.9" y2="427.5"/>
<line class="games0" x1="151.3" y1="411.8" x2="150.7" y2="439.6"/>
<line class="games0" x1="189.6" y1="410.2" x2="189.1" y2="446.6"/>
<polyline class="games0" points="210,450.2 210,415.4 213.5,326.6 "/>
<line class="games0" x1="245" y1="415" x2="245" y2="452.2"/>
<line class="games0" x1="277.4" y1="422.2" x2="277.4" y2="454.1"/>
<line class="games0" x1="313.4" y1="421.2" x2="313.4" y2="427"/>
<line class="games0" x1="406.6" y1="413" x2="408.6" y2="447.6"/>
<polyline class="games0" points="397,455 396.7,449 443.1,446.6 441.7,407.5 "/>
<line class="games0" x1="327" y1="388.2" x2="326.7" y2="425.4"/>
<line class="games0" x1="337.8" y1="393.2" x2="337.8" y2="424.7"/>
<polyline class="games0" points="263.5,418.8 265.4,303.9 248.2,294.3 231.5,295 231.5,324.6 110.2,335.1 111.6,312.6 84.3,302.3 
	47.6,306.9 44.8,335.3 -0.1,321.4 "/>
<path class="games0" d="M0.2,343.8c0.9,0,24.1-1.2,24.1-1.2l19,5.5l-3.9,39.4"/>
<polyline class="games0" points="-0.1,353.2 30.2,361.7 41.4,364.4 "/>
<line class="games0" x1="24.4" y1="342.5" x2="23.5" y2="359.6"/>
<line class="games0" x1="15.1" y1="326.8" x2="14.6" y2="342.4"/>
<line class="games0" x1="44.8" y1="335.3" x2="43.3" y2="348"/>
<line class="games0" x1="84.3" y1="302.3" x2="78.3" y2="395.6"/>
<polyline class="games0" points="105.8,401.6 110.2,335.1 130.5,341.9 156.9,338.9 173.1,345.1 212.4,342.3 "/>
<line class="games0" x1="83.6" y1="314" x2="110.7" y2="322.9"/>
<polyline class="games0" points="107.4,375.1 119.7,372.6 160.7,385.8 194.2,383.6 210.7,387.9 "/>
<polyline class="games0" points="108.8,355.8 119.1,359.8 149.5,358.2 167.6,363.4 197.2,360.7 211.8,366.5 "/>
<line class="games0" x1="130.5" y1="341.9" x2="129.6" y2="359.3"/>
<line class="games0" x1="156.9" y1="338.9" x2="156.9" y2="360.5"/>
<line class="games0" x1="173.1" y1="345.1" x2="172.8" y2="362.8"/>
<line class="games0" x1="197.2" y1="360.7" x2="196.9" y2="383.8"/>
<line class="games0" x1="167.6" y1="363.4" x2="167.6" y2="385.2"/>
<line class="games0" x1="149.5" y1="358.2" x2="149.5" y2="382.2"/>
<path class="games0" d="M119.1,359.8"/>
<line class="games0" x1="118.9" y1="360.4" x2="118.9" y2="404.7"/>
<line class="games0" x1="160.7" y1="385.8" x2="159.6" y2="410.9"/>
<line class="games0" x1="194.2" y1="383.6" x2="193.4" y2="410.4"/>
<line class="games0" x1="147.4" y1="332.7" x2="147.4" y2="339.6"/>
<line class="games0" x1="163.7" y1="331.3" x2="163.7" y2="341.2"/>
<path class="games0" d="M188.5,329c0,1.2,0,14.9,0,14.9"/>
<line class="games0" x1="202.3" y1="327.9" x2="202.3" y2="342.8"/>
<line class="games0" x1="248.2" y1="294.3" x2="245.8" y2="414.4"/>
<path class="games0" d="M265,316.1c-0.7-0.2-16.8-11-16.8-11"/>
<line class="games0" x1="264.5" y1="363.6" x2="295.3" y2="363.6"/>
<polyline class="games0" points="265.2,344.4 286.8,344.4 286.8,337.1 319.8,335.8 329,340.9 358,338.8 357.7,306.1 375.3,305.1 "/>
<polyline class="games0" points="434,299.3 424,299.3 424,328.1 414.5,328.1 416.3,405.4 "/>
<line class="games0" x1="424" y1="328.1" x2="445.2" y2="328.1"/>
<polyline class="games0" points="424,309.3 395.3,310.8 395.3,346.4 360.5,348.9 360.3,356.8 "/>
<path class="games0" d="M415.2,377.3c0,0-28.3,0.8-28.3,1.3s0.7,34.7,0.7,34.7"/>
<polyline class="games0" points="381.9,308.5 381.9,320.1 395,319.8 "/>
<path class="games0" d="M265.3,329.4l29.2-1.7l4.7,3.3v-12.3l26.8-2l0.2-9.7l22.3-1.5l-0.5-71.2l-39-36.5h-6.2l1.5-44.2l-4.5-4v-7.8
	l10.2-0.5v-15.2l-8.3-6.2v-16.8l-8.3-7.3v-2.5l-7.3-5.7V75.6l-7-6.2h-11.7l-5-6H255l0.8-22.8l-19-15.7V9.3l-10.3-8.3v14L210.8,0.4
	c0,0-0.5,15.2-0.4,17c0.2,1.8-13.8-11.3-13.8-11.3l-0.9,20.2l13.6,10.9c0,0,0,15.9-0.4,16.4c-0.4,0.5,37.7,31.1,37.5,32
	c-0.2,0.9,0.4,15.4,0.2,16.4c-0.2,1.1,11.4-2,11.4-2l0.7-26.4l9.6-0.9"/>
<line class="games0" x1="348.5" y1="298.6" x2="374" y2="295.9"/>
<line class="games0" x1="348.3" y1="267.4" x2="370" y2="266.3"/>
<polyline class="games0" points="372.3,259.8 369.5,256.3 348.5,257.4 "/>
<polyline class="games0" points="379.3,234.9 368.7,223.4 365,223.4 365,199.3 356.7,189.6 333.7,192.4 330,188.9 323.7,189.6 
	317.2,182.1 312.7,182.4 310.2,179.8 303.5,179.8 "/>
<line class="games0" x1="317.2" y1="182.1" x2="316.2" y2="204.1"/>
<polyline class="games0" points="323.7,189.6 328.3,195.3 328.3,216.1 "/>
<line class="games0" x1="333.7" y1="192.4" x2="328.3" y2="195.3"/>
<polyline class="games0" points="328.5,212.3 347.7,211.3 356,219.6 356.7,189.6 "/>
<polyline class="games0" points="347.7,211.3 347.7,225.8 365,223.4 "/>
<line class="games0" x1="347.7" y1="225.8" x2="340" y2="227.1"/>
<line class="games0" x1="368.7" y1="223.4" x2="369.5" y2="256.3"/>
<polyline class="games0" points="348.5,305.6 309,276.9 309,197.9 "/>
<polyline class="games0" points="309,276.9 269.8,280.9 253.5,268.3 214.2,272.4 231.5,284.3 231.5,295 213.6,282.9 214.9,234.9 
	160.1,196.8 162.6,148.1 137.9,128.5 100.7,136 74.4,116.6 34,125.7 29.2,186.7 -0.3,191.5 "/>
<polyline class="games0" points="253.5,268.3 255.1,192.2 270.9,203 272.5,166.6 284.6,177.4 286.2,144.9 294,150.9 294,144.5 "/>
<polyline class="games0" points="272.5,166.6 236.9,171.4 236.6,135.1 "/>
<polyline class="games0" points="242.1,139.9 253.8,152.2 269.5,148.6 "/>
<line class="games0" x1="259.5" y1="136.7" x2="259.5" y2="150.6"/>
<line class="games0" x1="253.8" y1="152.2" x2="253.8" y2="168.5"/>
<line class="games0" x1="186.2" y1="168.7" x2="186.2" y2="178.5"/>
<path class="games0" d="M201.7,158.6c0,0,0.2,18.5,0,18.5c-0.2,0-34.7,4.8-34.7,4.8l-0.5,18.3"/>
<polyline class="games0" points="162.4,168.7 168.8,174.4 185.7,172.6 "/>
<path class="games0" d="M74.4,116.6l-3.9,65.8l49.8-7.8c0,0,15.3,11,15.8,9.8c0.5-1.1,1.8-56,1.8-56"/>
<line class="games0" x1="100.7" y1="136" x2="99.8" y2="176.7"/>
<polyline class="games0" points="120.4,174.6 115.3,268.3 231.5,324.6 "/>
<line class="games0" x1="115.3" y1="268.3" x2="0" y2="281.3"/>
<polyline class="games0" points="89.5,271 89.5,262.6 98.4,261.2 98.6,269 "/>
<polyline class="games0" points="6.6,280 6.6,272.9 16.4,271.7 16.9,279.3 "/>
<polygon class="games0" points="64.6,258 72.8,257.6 73.1,250 64.2,250 "/>
<polygon class="games0" points="176.8,275.4 185.9,278.8 186.4,270.8 177.7,267.2 "/>
<line class="games0" x1="0.1" y1="170.9" x2="30.4" y2="165.5"/>
<polyline class="games0" points="30.8,103.3 52,100.9 62.8,109.5 87.6,104.9 101.9,117.4 128.9,114.7 143.9,125 143.4,114.5 "/>
<line class="games0" x1="54.3" y1="83.7" x2="53.2" y2="101.2"/>
<polyline class="games0" points="66.2,108.8 66,100.9 71.5,96.7 "/>
<line class="games0" x1="129.7" y1="102.2" x2="129.7" y2="114.7"/>
<polyline class="games0" points="93.2,90.8 93.2,98 106.8,109 101.9,117.4 101.4,134.1 "/>
<line class="games0" x1="87.6" y1="104.9" x2="86.4" y2="124"/>
<line class="games0" x1="128.9" y1="114.7" x2="128.9" y2="128.9"/>
<line class="games0" x1="143.9" y1="125" x2="143.9" y2="132.4"/>
<line class="games0" x1="150.5" y1="113.2" x2="150.3" y2="137.8"/>
<path class="games0" d="M-0.7,12.1l43.3-6.7L63,21.1l14.3-3.7c0,0,72,53.3,72,52.3s1.7-17.3,1.7-17.3l-14.7-9l-0.7-23l-24-16.3l0.3-3.3
	"/>
<line class="games0" x1="63" y1="21.1" x2="66" y2="1.8"/>
<line class="games0" x1="77.3" y1="17.4" x2="79" y2="1.4"/>
<line class="games0" x1="42.7" y1="5.4" x2="43.3" y2="1.4"/>
<path class="games0" d="M-0.7,18.8C0.7,19.8,33,40.4,33,40.4l12-2l12.3,8.7l-5,27l14.3,0.7l17.7,9.7l2.3-18.3l18.7,13l12.7-1.3
	l16.7,8.3l0.9-14.4L155,84.4v-8l13.3-0.7l1.3-6l13-1.3l-2,49l12,0.3l30.7,18.7"/>
<path class="games0" d="M-0.5,52.2c1,0.5,20.2,11.2,20.2,11.2l12.5-0.5l20.1,11.2l-10.6-6.2l1.5-11L21.5,44.2L9,44.9l-9-5.5"/>
<line class="games0" x1="0.8" y1="111.2" x2="4.8" y2="90.9"/>
<path class="games0" d="M32.2,62.9L27.1,104L4.8,90.9c0,0-4.8,0.2-5.8,0.2"/>
<polyline class="games0" points="21.5,44.2 19.8,63.4 16.5,96.4 "/>
<line class="games0" x1="33" y1="40.4" x2="31.5" y2="49.2"/>
<polyline class="games0" points="10,26.7 9,44.9 8,55.4 "/>
<line class="games0" x1="45" y1="38.4" x2="43.2" y2="56.9"/>
<path class="games0" d="M66.7,74.8c0.1-0.8,5.6-38.1,5.6-38.1l17.2,10.5l-2.8,18.9"/>
<polyline class="games0" points="87.5,62.2 93.5,64.7 107.2,60.7 123.8,72.7 149.3,69.8 "/>
<line class="games0" x1="107.2" y1="60.7" x2="103.9" y2="97.6"/>
<line class="games0" x1="118" y1="77.8" x2="116.4" y2="104.6"/>
<polyline class="games0" points="155,84.4 167.2,91.4 168.3,75.8 181.7,84.3 "/>
<polyline class="games0" points="180.7,117.4 180,127.8 191.5,134.4 196.8,68.3 209.7,77.4 207,125.1 "/>
<path class="games0" d="M207.5,119.4l49.8-2.5l36.4,26.7c0,0-23.3,5-24.2,5s-10.1-11.9-10.1-11.9l-17.4,3.2l-5.5-4.8l-35,4.1v19.4
	l-15.5,2.1v8L172.4,157v-4.1l-11-10.1l0.5-20.6l-11.4-9.1c0,0-6.4,1.4-7.1,1.4c-0.7,0-13.7-12.3-13.7-12.3l-21.9,4.8l0.2-5.3
	l-14.9-11l-21.7,5.9l-17.1-13l-22.2,5.7l-1.4,13.9l-3.7,0.7v18l-27.6,5.5"/>
<path class="games0" d="M257.4,116.9l0.7-16.8c0,0,10.7,7.1,11.1,6.1c0.4-1.1-0.7-33.4-0.7-33.4s10,8.2,10,7.7c0-0.5,0.5-11,0.5-11"/>
<line class="games0" x1="217.9" y1="6.3" x2="217.9" y2="1"/>
<polyline class="games0" points="196.6,6.2 186.3,7.9 186.3,1.3 "/>
<polyline class="games0" points="155.7,13.5 152.7,10.3 144.5,10.8 134.5,0.6 "/>
<path class="games0" d="M195.8,26.3l-12.5,1.4l-0.7,16.4l-39.3,2.9l3.6-31.8c0,0,27.5-4.3,27.7-4.8c0.2-0.5,0-8.8,0-8.8"/>
<polyline class="games0" points="183.2,27.8 197.4,40.1 209.3,37.2 "/>
<polyline class="games0" points="197.4,40.1 196.8,55.8 209,53.7 "/>
<line class="games0" x1="182.5" y1="44.2" x2="196.8" y2="55.8"/>
<path class="games0" d="M304.5,160.5c0.6,0.2,14.1,8.7,14.1,8.7v13"/>
<path class="games0" d="M256,49.9c0.8,0,78.2-12.2,78.2-12.2l17.5,21.2l-1,18.2L305,85.9l45.2,47.8l-40.2,7.8l-10.3-7l0.1,7.5"/>
<polyline class="games0" points="350.2,133.7 350.5,105.4 327.2,82.2 "/>
<polyline class="games0" points="350.8,77.2 333.8,59.2 334.2,37.7 "/>
<line class="games0" x1="333.8" y1="59.2" x2="267.3" y2="69.4"/>
<path class="games0" d="M289.2,1.4c0.8,1,8,15.3,10.2,15s53.8-11.2,53.8-11.2l29,46.2c0,0,50.2-8,50.8-8.8s0.8-21.2,0.8-21.2L423.2,1.2
	"/>
<line class="games0" x1="412.2" y1="1.4" x2="433" y2="42.7"/>
<path class="games0" d="M785.5,1.7v4.2l-13,1l4,49l-14.8,3.5l0.5,50.2l-21.8,1.2v-3.2l-13.2,1.2v4.5l-9,0.5l2.2,17.3l-12,1l2.5,22.8
	l-9.5,1v6.2h-7.8l0.2,4.2l-16.8,0.5v-3.2H672l-0.2-4.8l21.2-1.8v-16.5l-7-13.3l-8.2,0.8l-1-14.3l-9.5,1l-0.2-3.2l-11,1v3l-8.5,1.2
	l0.2,3.2l-5-0.2l-1.5-9.5l-9.5,0.5v-3.2l-11.8,1.5v4.8h-6.8l-0.2-12.8l-2.2-1.5h-11.2v-3h-11v4.5h-7.8v13.2h-10.2l0.8,8.2l-6.8-0.2
	l-0.5-2.5l-10.8,0.2c0,0,0.8,5.2,0.5,6.5s-10.8-0.5-10.8-0.5l-3.5-2.5h-10l-0.8,5l-3-0.5l-31.5-72.5L494,34.2l52.2-7.2
	c0,0,5.8,20,6.8,19.8s50.2-6.2,50.2-6.2l6.8,18.2l-0.8,19.7l-43.2,8l3.5,9.5l1,18.5"/>
<path class="games0" d="M494.2,55.7l52.2-5.2c0,0,5,17.2,5.8,17.2s51-4.2,51-4.2v-23"/>
<line class="games0" x1="609.2" y1="78.4" x2="603.2" y2="63.4"/>
<line class="games0" x1="546.2" y1="26.9" x2="546.5" y2="50.4"/>
<line class="games0" x1="553" y1="46.7" x2="552.2" y2="67.7"/>
<polyline class="games0" points="570.5,114.4 558.2,87.4 566,86.4 "/>
<path class="games0" d="M716.8,1.7c0,0-2.7,22.4-1.8,22.2c0.9-0.2,57.1-7.6,57.1-7.6"/>
<path class="games0" d="M419.5,174.8c0-0.4,0-3.1,0-3.1h8.3V169h4.1v-4.1h4.7V158h3.1v-2.7h8.1l2.9,2.3l7.3-0.6l3.5,1.8v10h4v3.7h5.8
	v-20.2h14.2V139h5v-2.4h5.3v-3.8h4.7v-5h11.7l2.3,2.8l14.4-1.8"/>
<polyline id="svg-concept" class="games1" points="362.2,561.8 338,631.8 352.7,641.8 376.3,645.8 405.5,556.9 "/>
<polyline id="svg-concept" class="games1" points="376.3,645.8 362.5,635.9 338,631.8 "/>
<polyline id="svg-concept" class="games1" points="393.8,591.6 380.8,580.6 356.3,579.1 "/>
<polyline id="svg-concept" class="games1" points="397.8,579.3 384.3,569.4 359.5,570.1 "/>
<polyline id="svg-concept" class="games1" points="379.5,634.4 366.3,623.4 341.8,620.4 "/>
<polyline id="svg-concept" class="games1" points="384,623.1 397.3,623.1 409.5,605.9 397.3,581.6 "/>
<line id="svg-concept" class="games1" x1="389.3" y1="606.6" x2="397.3" y2="623.1"/>
<line id="svg-concept" class="games1" x1="393.8" y1="615.4" x2="405.2" y2="597.3"/>
<polyline id="svg-concept" class="games1" points="404.3,613.1 424.2,614.9 448,550.1 413,555.3 400.5,587.4 "/>
<polyline id="svg-concept" class="games1" points="409.5,605.9 414.2,605.9 424.2,614.9 "/>
<polyline id="svg-concept" class="games1" points="428,603.8 417.8,594.8 403.3,593.9 "/>
<line id="svg-concept" class="games1" x1="433.2" y1="552.8" x2="414.2" y2="605.9"/>
<polyline id="svg-concept" class="games1" points="437.7,577.4 426.5,571.3 406.8,571.3 "/>
<polyline id="svg-concept" class="games1" points="439.5,572.8 429.7,562.6 409.7,563.8 "/>
<polygon id="svg-concept" class="games1" points="453.3,547.1 471,603.3 490.2,605.8 499.3,593.4 484.2,543.1 "/>
<polyline id="svg-concept" class="games1" points="468.2,594.8 487.2,596.3 496.5,584.8 "/>
<line id="svg-concept" class="games1" x1="490.2" y1="605.8" x2="471" y2="545.1"/>
<polyline id="svg-concept" class="games1" points="362.5,635.9 390,552.9 405.5,556.9 450.3,549.4 450.3,547.1 490,542.3 490.7,475.8 482.3,475.8 
	495.7,449.4 492.3,438.3 478.8,438.3 456.2,473.8 450.7,473.8 450.7,457.8 406.2,454.3 391.8,455.6 390.3,433.8 366.8,431.1 
	356.2,433.6 356.3,455.4 346.5,453.4 346.2,429.4 323,426.4 310.8,428.6 310.8,454.1 291.7,459.3 291.7,510.4 278,514.9 
	278.8,555.4 312.7,566.3 341.8,556.1 363.5,562.1 390,552.9 "/>
<line id="svg-concept" class="games1" x1="350.5" y1="558.7" x2="357.9" y2="573.9"/>
<line id="svg-concept" class="games1" x1="492.3" y1="438.3" x2="473.2" y2="474.8"/>
<polyline id="svg-concept" class="games1" points="482.3,475.8 450.7,473.8 450.3,547.1 "/>
<polyline id="svg-concept" class="games1" points="421.8,456.3 421.8,467.6 437.5,468.9 438,526.8 430,527.3 430,540.6 437.8,539.9 437.8,550.9 "/>
<line id="svg-concept" class="games1" x1="405.5" y1="556.9" x2="406.2" y2="454.3"/>
<polyline id="svg-concept" class="games1" points="405.8,512.9 415.3,512.9 415.3,498.9 405.7,499.4 "/>
<polygon id="svg-concept" class="games1" points="430,527.3 430,510.9 421.5,510.9 421.5,527.6 "/>
<polyline id="svg-concept" class="games1" points="414.5,555.2 414.5,541.8 423.3,541.1 423.3,553.6 "/>
<polyline id="svg-concept" class="games1" points="390,552.9 402.5,548 401.3,462.7 392.2,461 391.8,455.6 "/>
<polyline id="svg-concept" class="games1" points="401.3,462.7 360.8,472.5 363.5,562.7 "/>
<line id="svg-concept" class="games1" x1="360.8" y1="472.5" x2="291.7" y2="459.3"/>
<polyline id="svg-concept" class="games1" points="310.8,454.1 336,458.5 346.7,456.2 346.5,453.4 "/>
<polyline id="svg-concept" class="games1" points="310.8,428.6 335.3,432.4 335.2,458 "/>
<polygon id="svg-concept" class="games1" points="356.2,433.6 380.1,436.8 381.3,467 356.2,462 "/>
<line id="svg-concept" class="games1" x1="392.2" y1="461" x2="392.2" y2="464.9"/>
<line id="svg-concept" class="games1" x1="380.1" y1="436.8" x2="390.3" y2="433.8"/>
<line id="svg-concept" class="games1" x1="335.3" y1="432.4" x2="346.2" y2="429.4"/>
<line id="svg-concept" class="games1" x1="305" y1="506.2" x2="291.7" y2="510.4"/>
<line id="svg-concept" class="games1" x1="341.8" y1="556.1" x2="340.8" y2="514.4"/>
<polyline id="svg-concept" class="games1" points="278.5,544.7 312.8,554.1 341.2,544.9 "/>
<polyline id="svg-concept" class="games1" points="312.7,566.3 312.4,522.9 340.8,514.4 "/>
<line id="svg-concept" class="games1" x1="331.1" y1="517.4" x2="332.5" y2="559.3"/>
<line id="svg-concept" class="games1" x1="312.4" y1="522.9" x2="278" y2="514.9"/>
<polyline id="svg-concept" class="games1" points="327.8,511.5 300.1,520.2 300.1,533.4 287.1,530.2 287.1,517.2 313.7,508.4 "/>
<line id="svg-concept" class="games1" x1="298.5" y1="513.7" x2="310.9" y2="516.7"/>
<line id="svg-concept" class="games1" x1="291.6" y1="502.8" x2="361.9" y2="519.2"/>
<line id="svg-concept" class="games1" x1="291.7" y1="488.7" x2="361.6" y2="501.9"/>
<polyline id="svg-concept" class="games1" points="300.7,504.9 300.7,476.9 313.8,478.7 313.8,507.9 "/>
<polyline id="svg-concept" class="games1" points="336.3,513.3 336.3,482.4 349.9,484.2 349.9,516.6 "/>
<polyline id="svg-concept" class="games1" points="291.7,498.7 282.9,498.4 283.3,512 "/>
<polyline id="svg-concept" class="games1" points="-0.2,477.9 60.2,475.8 58.5,463.1 89.8,448.8 143.8,450.1 152.5,512.3 123.7,520.8 123.7,536.9 
	117.5,536.9 117.5,583.4 97,585.9 90,583.9 90,585.9 67.7,587.1 44.7,587.1 44.2,578.1 22.5,578.1 22.5,581.3 -0.2,582.8 "/>
<polyline id="svg-concept" class="games1" points="0,535.8 66.3,537.6 117.5,536.9 "/>
<line id="svg-concept" class="games1" x1="22.5" y1="578.1" x2="23.3" y2="536.8"/>
<line id="svg-concept" class="games1" x1="35" y1="577.9" x2="34.7" y2="537.3"/>
<polyline id="svg-concept" class="games1" points="34.8,571.3 40.2,571.3 40.2,577.9 "/>
<line id="svg-concept" class="games1" x1="44.2" y1="578.1" x2="42.5" y2="537.4"/>
<polyline id="svg-concept" class="games1" points="5.5,582.3 5.5,575.1 -0.2,575.1 "/>
<polyline id="svg-concept" class="games1" points="16.7,581.6 16.7,574.3 11,574.3 10.8,582.3 "/>
<polyline id="svg-concept" class="games1" points="66.5,578.8 73,578.4 73,586.6 "/>
<polyline id="svg-concept" class="games1" points="79,586.3 79,577.8 83.8,577.8 84.2,586.1 "/>
<line id="svg-concept" class="games1" x1="97" y1="585.9" x2="98.8" y2="537.6"/>
<line id="svg-concept" class="games1" x1="90" y1="583.9" x2="87.5" y2="537.6"/>
<polyline id="svg-concept" class="games1" points="97.2,577.3 101.5,577.3 101.5,585.1 "/>
<polyline id="svg-concept" class="games1" points="106.8,584.6 106.8,576.6 111.7,576.6 111.7,583.9 "/>
<polyline id="svg-concept" class="games1" points="60.2,475.8 66.8,475.8 66.3,537.6 66.8,586.8 "/>
<polyline id="svg-concept" class="games1" points="123.7,520.8 72.5,522.4 66.8,475.8 "/>
<polyline id="svg-concept" class="games1" points="123.7,525.8 69.2,526.3 69.2,496.4 "/>
<polyline id="svg-concept" class="games1" points="89.8,448.8 97.5,514.4 152.5,512.3 "/>
<line id="svg-concept" class="games1" x1="97.5" y1="514.4" x2="72.5" y2="522.4"/>
<polygon id="svg-concept" class="games1" points="82.7,502.3 87.5,500.8 84.8,476.1 80,476.9 "/>
<polygon id="svg-concept" class="games1" points="109.2,506.6 115.8,503.8 142.5,503.3 139.8,479.3 112.5,478.9 107,481.9 "/>
<polyline id="svg-concept" class="games1" points="109.2,506.6 109.2,509.3 138,507.9 142.5,503.3 "/>
<line id="svg-concept" class="games1" x1="112.5" y1="478.9" x2="115.8" y2="503.8"/>
<line id="svg-concept" class="games1" x1="115" y1="495.9" x2="141.7" y2="496.1"/>
<line id="svg-concept" class="games1" x1="113.5" y1="487.3" x2="140.7" y2="487.3"/>
<line id="svg-concept" class="games1" x1="120.8" y1="487.8" x2="121.5" y2="495.8"/>
<line id="svg-concept" class="games1" x1="133.8" y1="487.6" x2="134.3" y2="496.1"/>
<polyline id="svg-concept" class="games1" points="92.5,472.4 107.2,472.4 107.2,481.9 93.5,481.6 "/>
<line id="svg-concept" class="games1" x1="99.8" y1="472.8" x2="100.3" y2="481.6"/>
<polyline id="svg-concept" class="games1" points="134.2,479.3 134.2,472.6 146.8,472.6 "/>
<line id="svg-concept" class="games1" x1="148.2" y1="481.3" x2="140.2" y2="481.3"/>
<line id="svg-concept" class="games1" x1="141.2" y1="473.1" x2="141.7" y2="481.3"/>
<path id="svg-concept" class="games1" d="M12.8,530.3h48v-7.7h-48C12.8,522.6,13.3,530.3,12.8,530.3z"/>
<rect x="22.7" y="506.3" id="svg-concept" class="games1" width="27.7" height="8.2"/>
<polygon id="svg-concept" class="games1" points="3.7,500.1 60.8,499.3 60.8,490.3 3.7,491.8 "/>
<g>
	<polyline id="svg-concept" class="games1" points="317.2,388.7 317.2,385.3 326.6,382.3 326.6,377.3 331.9,375.2 327.4,361.4 332.1,361.4 332.1,354.5 
		327.6,354.5 327.6,348.2 317.8,345.9 310.7,346.7 310.7,360.8 303.1,360.8 295.1,364.4 292.5,374.8 293.8,377.8 298.1,377.8 
		298.1,385.3 304.4,385.3 304.4,388.7 	"/>
	<polyline id="svg-concept" class="games1" points="298.1,385.3 308.2,381.1 326.6,382.3 	"/>
	<line id="svg-concept" class="games1" x1="308.2" y1="381.1" x2="308.2" y2="361.2"/>
	<polyline id="svg-concept" class="games1" points="298.1,377.8 303.4,376.7 306.6,361.1 	"/>
	<polyline id="svg-concept" class="games1" points="303.1,360.8 300.1,372.8 292.8,374.6 	"/>
	<line id="svg-concept" class="games1" x1="300.1" y1="372.8" x2="303.4" y2="376.7"/>
	<polyline id="svg-concept" class="games1" points="308.2,368.4 326.3,368.4 326.6,377.3 	"/>
	<polyline id="svg-concept" class="games1" points="327.4,361.4 317.3,361.4 317.3,354.4 327.6,354.5 	"/>
	<line id="svg-concept" class="games1" x1="317.8" y1="345.9" x2="317.3" y2="354.4"/>
	<polyline id="svg-concept" class="games1" points="317.5,350.5 320.8,350.5 320.8,354.3 	"/>
	<polyline id="svg-concept" class="games1" points="327.7,351 324.4,351 324.4,354.4 324.4,361.4 	"/>
	<line id="svg-concept" class="games1" x1="319.7" y1="368.2" x2="319.7" y2="361.5"/>
	<line id="svg-concept" class="games1" x1="326.3" y1="368.4" x2="326.3" y2="361.4"/>
</g>
<g>
	<path id="svg-concept" class="games1" d="M782,272.1c0,0,25.6-0.4,25.6-0.8s-0.2-27.4-0.2-27.4l-26.9,0.9L782,272.1z"/>
	<polyline id="svg-concept" class="games1" points="781.6,266.6 777.7,266.6 777,247.9 777.6,244.9 780.5,244.8 	"/>
	<polyline id="svg-concept" class="games1" points="776.9,250.8 743.8,284.1 743.8,312.6 778.9,287.7 814.4,294.8 810.2,262.8 807.6,262.8 803.1,262.8 
		803.1,271.4 	"/>
	<line id="svg-concept" class="games1" x1="778.9" y1="287.7" x2="777.7" y2="266.6"/>
	<line id="svg-concept" class="games1" x1="749" y1="309.1" x2="749" y2="312.4"/>
	<line id="svg-concept" class="games1" x1="752.6" y1="306.4" x2="752.6" y2="312.2"/>
	<line id="svg-concept" class="games1" x1="752.5" y1="307.8" x2="764.8" y2="307.8"/>
	<line id="svg-concept" class="games1" x1="765" y1="297.6" x2="765" y2="312.2"/>
	<polyline id="svg-concept" class="games1" points="772.2,312.3 776.8,310 793.2,312.1 791.6,294.3 774.7,291.2 776.8,310 	"/>
	<line id="svg-concept" class="games1" x1="776.8" y1="310" x2="778.4" y2="320.3"/>
	<line id="svg-concept" class="games1" x1="790.8" y1="311.9" x2="790.8" y2="319.3"/>
	<polygon id="svg-concept" class="games1" points="795,295 796.8,313.1 810.6,314.3 808.7,297.7 	"/>
	<polyline id="svg-concept" class="games1" points="790.8,315.7 796.8,313.1 796.8,318.9 	"/>
	<line id="svg-concept" class="games1" x1="807.3" y1="314.6" x2="807.3" y2="318.4"/>
	<polyline id="svg-concept" class="games1" points="781.1,254.1 789.8,254.1 789.8,258.6 781.3,258.6 	"/>
	<polyline id="svg-concept" class="games1" points="807.3,253.8 798.5,253.8 798.5,258.4 807.4,258.4 	"/>
	<polyline id="svg-concept" class="games1" points="791.1,271.8 791.1,263.1 798.5,263.1 798.5,271.7 	"/>
	<polyline id="svg-concept" class="games1" points="781.3,262.9 786.8,262.9 786.8,271.9 	"/>
	<line id="svg-concept" class="games1" x1="814.4" y1="294.8" x2="808.7" y2="297.7"/>
</g>
<polyline class="games0" points="715.4,305.3 728,305.3 730,314 743.8,312.6 772.2,312.3 773.8,320.5 864.8,314.8 865.8,322 "/>
<g>
	<polyline class="games0" points="608.1,608.2 636.4,610.1 652.8,590.5 617.2,588.2 	"/>
	<polygon id="svg-concept" class="games1" points="506.8,593.8 523,654.8 586.3,660 570.2,596.7 	"/>
	<line id="svg-concept" class="games1" x1="506.7" y1="593.8" x2="579.4" y2="465.2"/>
	<polyline id="svg-concept" class="games1" points="650.1,305 637,298.9 536,316.4 532,469.4 635.6,457.7 570.2,596.7 	"/>
	<polyline id="svg-concept" class="games1" points="586.3,660 658,488.9 646,465.9 659,477.4 662.1,373.7 	"/>
	<polyline id="svg-concept" class="games1" points="622.2,574.4 625.4,578.5 665.4,580.5 678.6,542 648.5,510.6 	"/>
	<polyline id="svg-concept" class="games1" points="663.1,526.1 656.3,543.9 662.8,549.6 655.1,570.2 624.8,568.8 	"/>
	<line id="svg-concept" class="games1" x1="633.6" y1="547.2" x2="665" y2="580.6"/>
	<line id="svg-concept" class="games1" x1="607.5" y1="606.9" x2="607.9" y2="608.2"/>
	<polyline id="svg-concept" class="games1" points="522.2,566.4 584,567.6 593.7,595.8 599.9,582.2 607.5,606.9 	"/>
	<polygon id="svg-concept" class="games1" points="559.5,523.8 589.4,522.6 595,511.6 565.4,513.7 	"/>
	<polyline id="svg-concept" class="games1" points="532,469.4 545.7,477.3 538.6,493.3 554.5,509.4 	"/>
	<line id="svg-concept" class="games1" x1="538.6" y1="493.3" x2="563.6" y2="493.3"/>
	<line id="svg-concept" class="games1" x1="545.7" y1="477.3" x2="573.9" y2="474.7"/>
	<line id="svg-concept" class="games1" x1="637" y1="298.9" x2="635.6" y2="457.7"/>
	<polyline id="svg-concept" class="games1" points="620.8,459.4 620.8,448.4 606.5,449.9 606.5,436.9 532.8,445.7 	"/>
	<polyline id="svg-concept" class="games1" points="559.8,312.7 559.8,324.8 572.1,322.5 572.1,335.1 596.9,331.8 596.9,317.9 610.4,315.5 610.4,303.9 	
		"/>
	<polyline id="svg-concept" class="games1" points="536,316.4 525,307.9 529.3,205.7 630.4,184.5 673.7,222.4 670.8,293 	"/>
	<polygon id="svg-concept" class="games1" points="653.1,295.9 706.1,288.1 760.6,394.2 753.9,434 700.4,442.1 640.6,335.8 	"/>
	<polyline id="svg-concept" class="games1" points="640.6,335.8 695,328.3 706.1,288.1 	"/>
	<polyline id="svg-concept" class="games1" points="725.5,326.8 715,366.6 662.1,373.7 	"/>
	<line id="svg-concept" class="games1" x1="695" y1="328.3" x2="753.9" y2="434"/>
	<polyline id="svg-concept" class="games1" points="650.9,302.5 623.6,288.8 525,307.9 	"/>
	<polyline id="svg-concept" class="games1" points="546.7,303.6 548,276 560.9,274.1 560.5,286.1 585.6,281.4 585.8,269 598.9,266.8 598.1,293.9 	"/>
	<polygon id="svg-concept" class="games1" points="560.9,274.1 585.8,269 586.3,255.9 561.5,260.7 	"/>
	<polygon id="svg-concept" class="games1" points="561.5,260.7 561.9,247.6 537.7,253.2 537.3,265.8 	"/>
	<polygon id="svg-concept" class="games1" points="586.3,255.9 586.9,242.3 612.8,236.8 612.8,250.9 	"/>
	<line id="svg-concept" class="games1" x1="600.1" y1="239.6" x2="600.1" y2="253.6"/>
	<line id="svg-concept" class="games1" x1="549.1" y1="250.8" x2="549.1" y2="263.2"/>
	<polyline id="svg-concept" class="games1" points="527.5,243.3 539.5,241.2 539.6,227.1 613.4,211.3 613.4,223.9 627.1,221.2 	"/>
	<line id="svg-concept" class="games1" x1="630.4" y1="184.5" x2="623.6" y2="288.8"/>
	<polyline id="svg-concept" class="games1" points="626.4,249.2 632.5,253.3 633.5,240.1 645,249.2 643.1,276.4 654.8,283.2 654.4,292.4 662.1,294.2 	
		"/>
	<polyline id="svg-concept" class="games1" points="447.7,338.8 416.2,353.9 429.9,408.8 482.4,402.1 534.5,368.8 	"/>
	<polyline id="svg-concept" class="games1" points="526.5,309.1 500.1,313.6 481.2,322.7 	"/>
	<polyline id="svg-concept" class="games1" points="531.5,370.3 519,318.3 483.4,324.3 	"/>
	<polyline id="svg-concept" class="games1" points="416.2,353.9 467.8,346.4 529.6,311.9 	"/>
	<polyline id="svg-concept" class="games1" points="468.5,404.2 487.4,415.8 500.6,414.9 508.6,385.6 	"/>
	<polyline id="svg-concept" class="games1" points="500.6,414.9 482.4,402.1 467.8,346.4 	"/>
	<polyline id="svg-concept" class="games1" points="478.1,410.3 490.8,408.2 493.9,394.9 504.4,400.9 	"/>
	<path id="svg-concept" class="games1" d="M446.3,344.1c0,0,12.5-1.3,13.8-1.7s28.7-14.8,28.7-14.8l-11-6.4l3.9-13.8l-10.3-5.7l3.6-14.5l-10.7-5.7
		l4.3-14.3l-11.1-6.1l4.8-13.8l-11.7-6l2.3-6.7l30.1,19.1l13.7-1.9l1.9-6.6l12.7-1.3l4.6-14.3l-11.6-6.3l5.1-14.4l-52.5-30.4
		l-13.4,1.1l-1.4,7.1l-19.5-12.1l-13.3,2.3l-10,34.5l-12.8,1.6L366,282.7l11,5.6l-4,14l8.8,6.3l15.1-1.9l1.4-6.4l12.5-1.4l9.6-33.7
		l10.3,5.4l-4.1,13.8l10.3,6l-3.6,14.1l10.1,5.7l-3.6,14l10.4,6.1L446.3,344.1z"/>
	<polyline id="svg-concept" class="games1" points="450.3,330.3 463.8,328.8 474.9,334.7 477.8,321.2 456.9,308.6 	"/>
	<line id="svg-concept" class="games1" x1="439.9" y1="324.2" x2="453.1" y2="322.7"/>
	<polyline id="svg-concept" class="games1" points="443.5,310.2 456.9,308.6 464.3,281.4 443.5,268.8 	"/>
	<line id="svg-concept" class="games1" x1="433.3" y1="304.5" x2="446.2" y2="302.9"/>
	<polyline id="svg-concept" class="games1" points="436.9,290.4 450.1,288.6 457.4,261 	"/>
	<line id="svg-concept" class="games1" x1="426.6" y1="284.4" x2="439.8" y2="282.9"/>
	<polyline id="svg-concept" class="games1" points="430.8,270.6 443.5,268.8 450.6,241.2 	"/>
	<polyline id="svg-concept" class="games1" points="463.8,328.8 471.4,301.6 450.1,288.6 	"/>
	<polyline id="svg-concept" class="games1" points="496.7,251.7 444.8,220.6 436.9,248.9 	"/>
	<polyline id="svg-concept" class="games1" points="420.5,265.1 430.3,228.9 450.7,241.6 	"/>
	<line id="svg-concept" class="games1" x1="457.7" y1="261" x2="436.6" y2="248.8"/>
	<polyline id="svg-concept" class="games1" points="398.4,300.2 415.8,237.1 426.2,242.9 436.9,248.9 432.8,262.4 443.5,268.8 439.8,282.9 450.1,288.6 
		446.2,302.9 456.9,308.6 453.1,322.7 463.8,328.8 460.1,342.4 	"/>
	<polyline id="svg-concept" class="games1" points="511.2,243.9 459.2,212.8 452.9,234.5 	"/>
	<polyline id="svg-concept" class="games1" points="498.5,245.2 504.2,223.4 452.5,193.1 448.5,206.9 438.3,201.8 434.3,215.3 423.7,209.8 420,222.9 
		409.3,217.6 385.7,300.4 	"/>
	<polyline id="svg-concept" class="games1" points="411,298.8 379.2,280.9 366,282.7 	"/>
	<line id="svg-concept" class="games1" x1="377" y1="288.2" x2="389.3" y2="286.9"/>
	<polyline id="svg-concept" class="games1" points="379.2,280.9 399.3,211.5 409.3,217.6 422.5,174.7 	"/>
	<polyline id="svg-concept" class="games1" points="401,205.6 413.3,204.3 423.7,209.8 432.5,181.4 	"/>
	<polyline id="svg-concept" class="games1" points="456.9,178.6 452.5,193.1 442,186.9 438.3,201.8 417.7,190.4 405.2,191.3 	"/>
	<polyline id="svg-concept" class="games1" points="659.8,447.6 643.5,437.9 643.5,451.4 635.7,447.7 	"/>
</g>
<g>
	<polygon id="svg-concept" class="games1" points="773.1,587.9 803.9,589.7 807.3,580.3 808.9,588.7 840.2,591.5 845.1,585 858.4,585.5 867,539.1 
		856.1,527.4 859.7,439.2 862.3,439.2 864.2,376.8 849.8,368 785.1,368 783.8,434.5 787.7,434.5 785.9,528.4 771.8,528.4 
		760.6,575.9 	"/>
	<polyline id="svg-concept" class="games1" points="787.7,434.5 848.5,434.2 862.3,439.2 787.5,439.2 	"/>
	<polyline id="svg-concept" class="games1" points="849,439.4 845.9,535.2 855.8,534.9 850.9,567 854,569.9 852.4,578.2 858.4,585.5 	"/>
	<polyline id="svg-concept" class="games1" points="845.1,585 851.4,573.5 845.9,535.2 845.7,530.5 814.1,527.9 802.9,542.7 807.3,580.3 	"/>
	<polyline id="svg-concept" class="games1" points="806.5,573.5 838.6,575.6 839.5,583.8 842.5,579.5 843.2,587.2 	"/>
	<polyline id="svg-concept" class="games1" points="845.7,530.5 834.9,544.8 838.6,575.6 	"/>
	<line id="svg-concept" class="games1" x1="802.9" y1="542.7" x2="834.9" y2="544.8"/>
	<polyline id="svg-concept" class="games1" points="808.8,534.9 802.6,529.6 785.9,528.4 	"/>
	<polyline id="svg-concept" class="games1" points="802.6,529.6 792,577.6 803.9,589.7 	"/>
	<line id="svg-concept" class="games1" x1="760.6" y1="575.9" x2="792" y2="577.6"/>
	<line id="svg-concept" class="games1" x1="764.2" y1="560.1" x2="795.4" y2="561.2"/>
	<line id="svg-concept" class="games1" x1="839.5" y1="583.4" x2="840.2" y2="591.5"/>
	<polyline id="svg-concept" class="games1" points="793.8,570.1 798.4,572.8 796.2,581.3 	"/>
	<polyline id="svg-concept" class="games1" points="799.3,433.9 799.3,410.1 808.2,410.1 808.2,401.6 824.5,401.6 824.5,410.4 832.7,410.4 832.7,434.3 	
		"/>
	<polyline id="svg-concept" class="games1" points="807.3,434.3 807.3,426.4 823.8,426.4 823.8,434 	"/>
	<polygon id="svg-concept" class="games1" points="808.3,401.6 792.2,401.6 792.2,384.8 808.1,384.8 	"/>
	<polygon id="svg-concept" class="games1" points="824.5,401.6 824.5,384.5 841.2,384.5 841.2,401.9 	"/>
	<line id="svg-concept" class="games1" x1="849.8" y1="368" x2="848.5" y2="434.2"/>
	<path id="svg-concept" class="games1" d="M823.2,528.5c0-0.5,0-26.8,0-26.8h-7.5v-25.2h-7.3V493l-16.2-0.5v8h15.8v17.1h6.1l0.1,10.2"/>
	<polygon id="svg-concept" class="games1" points="830.8,501.3 830.8,518.4 838.8,518.4 838.8,501.6 	"/>
	<polyline id="svg-concept" class="games1" points="847.2,492.9 839.1,492.9 839.1,477 847.7,477 	"/>
	<polyline id="svg-concept" class="games1" points="810.1,439.6 810.1,451.6 817.5,451.6 817.5,439.9 	"/>
	<polyline id="svg-concept" class="games1" points="832.6,439.6 832.6,451.6 840.1,451.6 840.1,439.8 	"/>
	<path id="svg-concept" class="games1" d="M848.7,451.7h-8.6v8.5c0.4,0,8.5,0,8.5,0"/>
	<polyline id="svg-concept" class="games1" points="786.6,492.4 792.1,492.4 792.1,483.8 786.8,483.8 	"/>
	<path id="svg-concept" class="games1" d="M792.1,483.8h9.2c0,0,0-7.7,0-7.7h-9.2L792.1,483.8z"/>
</g>
<polyline class="games0" points="360.5,423.9 360.3,356.8 337.8,358.2 337.8,393.2 327,388.2 264,391.6 "/>
<g>
	<path id="svg-concept" class="games1" d="M1001.5,428.2l12.5-2.5l11.8,32.8l-2.8,2.8l5.5,0.8l5.5-3l7.8,4.8l17.8-5.8l-9-5.5l-4.2,1.8l-2.8-1.2
		l-3.5-34.5l23-5l-8.8-35c0,0,2.5-0.2,3.2-0.5s18.2-13.5,18.2-13.5l-2.8-5.5l-22.8,12l-7.8-30.2l-7.8-4.2l-27.5,10.2l1.5,10.2
		l-6.2,2.2l4.5,16l8.8,0.8l-8.2,3.2l-30.2-8L967,382.9l-0.5,6.2l27.5,7L1001.5,428.2z"/>
	<polyline id="svg-concept" class="games1" points="1012.3,377.9 1023.6,423 1040,418.4 	"/>
	<line id="svg-concept" class="games1" x1="1014" y1="425.7" x2="1023.6" y2="423"/>
	<polyline id="svg-concept" class="games1" points="1020.3,424.2 1032.8,456.5 1038.5,455.2 1041.6,455.8 1034,458.9 	"/>
	<line id="svg-concept" class="games1" x1="1033.9" y1="420.3" x2="1037.2" y2="455.2"/>
	<polyline id="svg-concept" class="games1" points="1007.5,379.2 1007.4,387.1 994,396.2 	"/>
	<polyline id="svg-concept" class="games1" points="966.5,389.2 976.4,379.3 1007.4,387.1 	"/>
	<line id="svg-concept" class="games1" x1="977.2" y1="371.2" x2="976.4" y2="379.3"/>
	<line id="svg-concept" class="games1" x1="1057.5" y1="377.9" x2="1053" y2="370.2"/>
	<polyline id="svg-concept" class="games1" points="1017.4,375.5 1021.2,389.8 1028.3,390.3 1040.9,385.7 1037.5,370.7 1032.2,369.6 1015.8,375.9 	"/>
	<polyline id="svg-concept" class="games1" points="1021.2,389.8 1035.1,384.7 1040.9,385.7 	"/>
	<line id="svg-concept" class="games1" x1="1035.1" y1="384.7" x2="1032.2" y2="369.6"/>
	<polyline id="svg-concept" class="games1" points="1034.8,336.4 1046.7,383.5 1052.3,384 1050.2,370.9 1054.2,378.4 	"/>
	<line id="svg-concept" class="games1" x1="1052.3" y1="384" x2="1028.3" y2="390.3"/>
	<polyline id="svg-concept" class="games1" points="1037,364.6 1032.4,349.3 1002.5,359.2 	"/>
	<line id="svg-concept" class="games1" x1="1032.4" y1="349.3" x2="1038.4" y2="352"/>
	<polyline id="svg-concept" class="games1" points="1008.1,353.2 1015,350.9 1015.7,354.5 	"/>
	<polyline id="svg-concept" class="games1" points="1029.3,350.1 1028.6,346.5 1036.3,344.3 	"/>
	<polyline id="svg-concept" class="games1" points="1036.6,370.6 1043,368.6 1037,364.6 1007,375.2 	"/>
</g>
<line id="svg-concept" class="games1" x1="420.8" y1="265.5" x2="432.8" y2="262.4"/>
</svg>
