<?xml version="1.0" encoding="utf-8"?>
<!-- Generator: Adobe Illustrator 23.0.6, SVG Export Plug-In . SVG Version: 6.00 Build 0)  -->
<svg version="1.1" id="Layer_1" xmlns="http://www.w3.org/2000/svg" xmlns:xlink="http://www.w3.org/1999/xlink" x="0px" y="0px"
	 viewBox="0 0 225.4 75.3" style="enable-background:new 0 0 225.4 75.3;" xml:space="preserve">
<style type="text/css">
	.st0{fill:#FFFFFF;}
	.st1{fill:#EE5586;}
</style>
<path class="st0" d="M225,66.8v5.7H0v-5.7H225z"/>
<g>
	<circle id="svg-ico" class="st1" cx="5.2" cy="69.6" r="4"/>
	
		<animateMotion  accumulate="none" additive="replace" begin="0s" calcMode="paced" dur="6s" fill="remove" path="M210,0 0 0 210,0" repeatCount="indefinite" restart="always">
		</animateMotion>
</g>
<g>
	<path class="st0" d="M16.7,19.5v14.1v7.1c0,3.9-1.4,7.2-4.2,10s-6.1,4.1-10,4.1c-0.5,0-0.9,0-1.3-0.1v-7.1c0.5,0.1,0.9,0.1,1.3,0.1
		c1.9,0,3.6-0.7,5-2.1c1.4-1.4,2.1-3,2.1-5V40v-6.3V19.5H16.7z"/>
	<path class="st0" d="M39.6,24.7c3.5,3.5,5.2,7.6,5.2,12.5c0,4.9-1.7,9-5.2,12.5c-3.5,3.5-7.6,5.2-12.5,5.2H20V19.5h7.1
		C32,19.5,36.1,21.2,39.6,24.7z M34.6,44.7c2.1-2.1,3.1-4.6,3.1-7.5c0-2.9-1-5.4-3.1-7.5s-4.6-3.1-7.5-3.1v21.2
		C30,47.8,32.5,46.7,34.6,44.7z"/>
	<path class="st0" d="M71.7,20.9c2.1,0.9,4,2.2,5.6,3.8l-5,5c-2.1-2.1-4.6-3.1-7.5-3.1c-2.9,0-5.4,1-7.5,3.1s-3.1,4.6-3.1,7.5
		c0,2.9,1,5.4,3.1,7.5c2.1,2.1,4.6,3.1,7.5,3.1c2.9,0,5.4-1,7.5-3.1l5,5c-1.6,1.6-3.5,2.9-5.6,3.8c-2.1,0.9-4.4,1.4-6.9,1.4
		c-4.9,0-9-1.7-12.5-5.2c-3.5-3.5-5.2-7.6-5.2-12.5c0-4.9,1.7-9,5.2-12.5c3.5-3.5,7.6-5.2,12.5-5.2C67.3,19.5,69.6,20,71.7,20.9z"/>
	<path class="st0" d="M88.2,47.4v7.4h-7.4v-7.4H88.2z"/>
	<path class="st0" d="M109.9,42.5l17.2-23v35.3H120V40.7l-10.2,13.6L99.7,40.7v14.1h-7.1V19.5L109.9,42.5z"/>
	<path class="st0" d="M151.5,19.5v7.1h-14.1v7.1H148v7.1h-10.6v7.1h14.1v7.1h-14.1h-7.1V40.7v-7.1V19.5H151.5z"/>
	<path class="st0" d="M174.3,24.7c3.5,3.5,5.2,7.6,5.2,12.5c0,4.9-1.7,9-5.2,12.5c-3.5,3.5-7.6,5.2-12.5,5.2h-7.1V19.5h7.1
		C166.7,19.5,170.8,21.2,174.3,24.7z M169.3,44.7c2.1-2.1,3.1-4.6,3.1-7.5c0-2.9-1-5.4-3.1-7.5c-2.1-2.1-4.6-3.1-7.5-3.1v21.2
		C164.7,47.8,167.2,46.7,169.3,44.7z"/>
	<path class="st0" d="M181.9,19.5h7.1v35.3h-7.1V19.5z"/>
	<path class="st0" d="M202,49.8l-2.3,5h-1.2h-0.3h-4.6h-1.5l15.1-33.7l0.7-1.6l0.8,1.7L224,54.9h-1.5h-4.6h-0.3h-1.2l-2.3-5.1
		l-0.1-0.2h-11.9L202,49.8z M210.9,42.5l-2.8-6.2l-2.8,6.2H210.9z"/>
</g>
</svg>
