<?xml version="1.0" encoding="utf-8"?>
<!-- Generator: Adobe Illustrator 23.0.6, SVG Export Plug-In . SVG Version: 6.00 Build 0)  -->
<svg version="1.1" id="Layer_1" xmlns="http://www.w3.org/2000/svg" xmlns:xlink="http://www.w3.org/1999/xlink" x="0px" y="0px"
	 viewBox="0 0 225.4 75.3" style="enable-background:new 0 0 225.4 75.3;" xml:space="preserve">
<style type="text/css">
	.st0{fill:#D8D8D8;}
	.st1{fill:#EE5586;}
	.st2{fill:#FFFFFF;}
</style>
<path class="st0" d="M225,66.8v5.7H0v-5.7H225z"/>
<g>
	<circle id="svg-ico" class="st1" cx="5.2" cy="69.6" r="4"/>
	
		<animateMotion  accumulate="none" additive="replace" begin="0s" calcMode="paced" dur="6s" fill="remove" path="M210,0 0 0 210,0" repeatCount="indefinite" restart="always">
		</animateMotion>
</g>
<g>
	<path class="st2" d="M17.1,20.8V35V42c0,3.9-1.4,7.2-4.2,10s-6.1,4.1-10,4.1c-0.5,0-0.9,0-1.3-0.1V49c0.5,0.1,0.9,0.1,1.3,0.1
		c1.9,0,3.6-0.7,5-2.1c1.4-1.4,2.1-3,2.1-5v-0.7V35V20.8H17.1z"/>
	<path class="st2" d="M40,26c3.5,3.5,5.2,7.6,5.2,12.5c0,4.9-1.7,9-5.2,12.5c-3.5,3.5-7.6,5.2-12.5,5.2h-7.1V20.8h7.1
		C32.4,20.8,36.5,22.6,40,26z M35,46c2.1-2.1,3.1-4.6,3.1-7.5c0-2.9-1-5.4-3.1-7.5s-4.6-3.1-7.5-3.1v21.2C30.4,49.1,32.9,48.1,35,46
		z"/>
	<path class="st2" d="M72.1,22.2c2.1,0.9,4,2.2,5.6,3.8l-5,5c-2.1-2.1-4.6-3.1-7.5-3.1c-2.9,0-5.4,1-7.5,3.1s-3.1,4.6-3.1,7.5
		c0,2.9,1,5.4,3.1,7.5c2.1,2.1,4.6,3.1,7.5,3.1c2.9,0,5.4-1,7.5-3.1l5,5c-1.6,1.6-3.5,2.9-5.6,3.8c-2.1,0.9-4.4,1.4-6.9,1.4
		c-4.9,0-9-1.7-12.5-5.2c-3.5-3.5-5.2-7.6-5.2-12.5c0-4.9,1.7-9,5.2-12.5c3.5-3.5,7.6-5.2,12.5-5.2C67.7,20.8,70,21.3,72.1,22.2z"/>
	<path class="st2" d="M88.6,48.7v7.4h-7.4v-7.4H88.6z"/>
	<path class="st2" d="M110.3,43.8l17.2-23v35.3h-7.1V42l-10.2,13.6L100.1,42v14.1H93V20.8L110.3,43.8z"/>
	<path class="st2" d="M152,20.8v7.1h-14.1V35h10.6V42h-10.6v7.1H152v7.1h-14.1h-7.1V42V35V20.8H152z"/>
	<path class="st2" d="M174.7,26c3.5,3.5,5.2,7.6,5.2,12.5c0,4.9-1.7,9-5.2,12.5c-3.5,3.5-7.6,5.2-12.5,5.2h-7.1V20.8h7.1
		C167.1,20.8,171.2,22.6,174.7,26z M169.7,46c2.1-2.1,3.1-4.6,3.1-7.5c0-2.9-1-5.4-3.1-7.5c-2.1-2.1-4.6-3.1-7.5-3.1v21.2
		C165.1,49.1,167.6,48.1,169.7,46z"/>
	<path class="st2" d="M182.3,20.8h7.1v35.3h-7.1V20.8z"/>
	<path class="st2" d="M202.4,51.1l-2.3,5h-1.2h-0.3h-4.6h-1.5l15.1-33.7l0.7-1.6l0.8,1.7l15.2,33.7h-1.5h-4.6H218h-1.2l-2.3-5.1
		l-0.1-0.2h-11.9L202.4,51.1z M211.3,43.8l-2.8-6.2l-2.8,6.2H211.3z"/>
</g>
</svg>
